{"asset":{"version":"2.0","generator":"THREE.GLTFExporter"},"scenes":[{"name":"AuxScene","nodes":[6]}],"scene":0,"nodes":[{"matrix":[0.36773157119750977,0,0.9299319386482239,0,0,0.9999999403953552,0,0,-0.9299319386482239,0,0.36773157119750977,0,0.7001095414161682,-0.3672500550746918,-0.4181998074054718,0.9999999403953552],"mesh":0},{"matrix":[-0.9299320578575134,0,0.367731511592865,0,0,0.9999999403953552,0,0,-0.367731511592865,0,-0.9299320578575134,0,-0.2463078796863556,-0.3672500550746918,2.1283719539642334,0.9999999403953552],"mesh":1},{"matrix":[0.9299319982528687,0,-0.367731511592865,0,0,0.9999999403953552,0,0,0.367731511592865,0,0.9299319982528687,0,-1.8219772577285767,-0.3672500550746918,-1.4211336374282837,0.9999999403953552],"mesh":2},{"matrix":[-0.36773157119750977,0,-0.9299319386482239,0,0,0.9999999403953552,0,0,0.9299319386482239,0,-0.36773157119750977,0,-2.768394947052002,-0.3672500550746918,1.1254380941390991,0.9999999403953552],"mesh":3},{"matrix":[0.16545549035072327,0,-0.986217200756073,0,0,1,0,0,0.9862173795700073,0,0.16545550525188446,0,-1.9573546648025513,-0.9340006113052368,0.13762366771697998,0.9999999403953552],"mesh":4},{"matrix":[0.9299320578575134,0,-0.3677314817905426,0,0,0.9999999403953552,0,0,0.3677314817905426,0,0.9299320578575134,0,-2.019071340560913,0.037516627460718155,-1.3025089502334595,0.9999999403953552],"mesh":5},{"children":[0,1,2,3,4,5]}],"bufferViews":[{"buffer":0,"byteOffset":0,"byteLength":1440,"target":34962,"byteStride":12},{"buffer":0,"byteOffset":1440,"byteLength":1440,"target":34962,"byteStride":12},{"buffer":0,"byteOffset":2880,"byteLength":1152,"target":34962,"byteStride":12},{"buffer":0,"byteOffset":4032,"byteLength":1152,"target":34962,"byteStride":12},{"buffer":0,"byteOffset":5184,"byteLength":1872,"target":34962,"byteStride":12},{"buffer":0,"byteOffset":7056,"byteLength":1872,"target":34962,"byteStride":12},{"buffer":0,"byteOffset":8928,"byteLength":432,"target":34962,"byteStride":12},{"buffer":0,"byteOffset":9360,"byteLength":432,"target":34962,"byteStride":12},{"buffer":0,"byteOffset":9792,"byteLength":432,"target":34962,"byteStride":12},{"buffer":0,"byteOffset":10224,"byteLength":432,"target":34962,"byteStride":12},{"buffer":0,"byteOffset":10656,"byteLength":432,"target":34962,"byteStride":12},{"buffer":0,"byteOffset":11088,"byteLength":432,"target":34962,"byteStride":12}],"buffers":[{"byteLength":11520,"uri":"data:application/octet-stream;base64,"}],"accessors":[{"bufferView":0,"componentType":5126,"count":120,"max":[2.020110845565796,1.1338180303573608,0],"min":[-2.020110845565796,-1.1338180303573608,-0.1599999964237213],"type":"VEC3"},{"bufferView":1,"componentType":5126,"count":120,"max":[1,1,1],"min":[-1,-1,-1],"type":"VEC3"},{"bufferView":2,"componentType":5126,"count":96,"max":[1.9765589237213135,1.1338180303573608,0],"min":[-1.9765589237213135,-1.1338180303573608,-0.1599999964237213],"type":"VEC3"},{"bufferView":3,"componentType":5126,"count":96,"max":[1,1,1],"min":[-1,-1,-1],"type":"VEC3"},{"bufferView":4,"componentType":5126,"count":156,"max":[1.9765586853027344,1.1338181495666504,0],"min":[-1.9765586853027344,-1.1338180303573608,-0.1599999964237213],"type":"VEC3"},{"bufferView":5,"componentType":5126,"count":156,"max":[1,1,1],"min":[-1,-1,-1],"type":"VEC3"},{"bufferView":6,"componentType":5126,"count":36,"max":[2.020110845565796,1.1338180303573608,0],"min":[-2.020110845565796,-1.1338180303573608,-0.1599999964237213],"type":"VEC3"},{"bufferView":7,"componentType":5126,"count":36,"max":[1,1,1],"min":[-1,-1,-1],"type":"VEC3"},{"bufferView":8,"componentType":5126,"count":36,"max":[0.26139122247695923,0.5670673847198486,0.29956957697868347],"min":[-0.26139122247695923,-0.5670673847198486,-0.29956957697868347],"type":"VEC3"},{"bufferView":9,"componentType":5126,"count":36,"max":[1,1,1],"min":[-1,-1,-1],"type":"VEC3"},{"bufferView":10,"componentType":5126,"count":36,"max":[0.6448371410369873,0.39451882243156433,0.03783620521426201],"min":[-0.6448371410369873,-0.39451882243156433,-0.03783620521426201],"type":"VEC3"},{"bufferView":11,"componentType":5126,"count":36,"max":[1,1,1],"min":[-1,-1,-1],"type":"VEC3"}],"materials":[{"pbrMetallicRoughness":{"metallicFactor":0,"roughnessFactor":1}},{"pbrMetallicRoughness":{"metallicFactor":0,"roughnessFactor":1}},{"pbrMetallicRoughness":{"metallicFactor":0,"roughnessFactor":1}},{"pbrMetallicRoughness":{"metallicFactor":0,"roughnessFactor":1}},{"pbrMetallicRoughness":{"metallicFactor":0,"roughnessFactor":1}},{"pbrMetallicRoughness":{"metallicFactor":0,"roughnessFactor":1}}],"meshes":[{"primitives":[{"mode":4,"attributes":{"POSITION":0,"NORMAL":1},"material":0}]},{"primitives":[{"mode":4,"attributes":{"POSITION":2,"NORMAL":3},"material":1}]},{"primitives":[{"mode":4,"attributes":{"POSITION":4,"NORMAL":5},"material":2}]},{"primitives":[{"mode":4,"attributes":{"POSITION":6,"NORMAL":7},"material":3}]},{"primitives":[{"mode":4,"attributes":{"POSITION":8,"NORMAL":9},"material":4}]},{"primitives":[{"mode":4,"attributes":{"POSITION":10,"NORMAL":11},"material":5}]}]}